<svg xmlns="http://www.w3.org/2000/svg" viewBox="0 0 128 128">
  <rect width="128" height="128" rx="16" fill="#2d2d2d"/>
  <!-- Top-left finder pattern -->
  <rect x="16" y="16" width="28" height="28" rx="4" fill="#ffffff"/>
  <rect x="20" y="20" width="20" height="20" rx="2" fill="#2d2d2d"/>
  <rect x="26" y="26" width="8" height="8" rx="1" fill="#ffffff"/>
  <!-- Top-right finder pattern -->
  <rect x="84" y="16" width="28" height="28" rx="4" fill="#ffffff"/>
  <rect x="88" y="20" width="20" height="20" rx="2" fill="#2d2d2d"/>
  <rect x="94" y="26" width="8" height="8" rx="1" fill="#ffffff"/>
  <!-- Bottom-left finder pattern -->
  <rect x="16" y="84" width="28" height="28" rx="4" fill="#ffffff"/>
  <rect x="20" y="88" width="20" height="20" rx="2" fill="#2d2d2d"/>
  <rect x="26" y="94" width="8" height="8" rx="1" fill="#ffffff"/>
  <!-- Data dots -->
  <circle cx="64" cy="64" r="4" fill="#4fc3f7"/>
  <circle cx="76" cy="64" r="4" fill="#4fc3f7"/>
  <circle cx="64" cy="76" r="4" fill="#4fc3f7"/>
  <circle cx="52" cy="64" r="4" fill="#4fc3f7"/>
  <circle cx="64" cy="52" r="4" fill="#4fc3f7"/>
  <circle cx="76" cy="76" r="4" fill="#4fc3f7"/>
  <circle cx="52" cy="76" r="4" fill="#4fc3f7"/>
  <circle cx="76" cy="52" r="4" fill="#4fc3f7"/>
  <circle cx="88" cy="64" r="4" fill="#4fc3f7"/>
  <circle cx="64" cy="88" r="4" fill="#4fc3f7"/>
  <circle cx="100" cy="76" r="4" fill="#4fc3f7"/>
  <circle cx="52" cy="52" r="4" fill="#4fc3f7"/>
</svg>
